<?xml version="1.0" encoding="UTF-8" standalone="no"?>
<!DOCTYPE svg PUBLIC "-//W3C//DTD SVG 1.1//EN"
 "http://www.w3.org/Graphics/SVG/1.1/DTD/svg11.dtd">
<!-- Generated by graphviz version 2.40.1 (20161225.0304)
 -->
<!-- Title: models_diagram Pages: 1 -->
<svg width="1356pt" height="1244pt"
 viewBox="0.00 0.00 1355.87 1243.80" xmlns="http://www.w3.org/2000/svg" xmlns:xlink="http://www.w3.org/1999/xlink">
<g id="graph0" class="graph" transform="scale(1 1) rotate(0) translate(36 1207.7982)">
<title>models_diagram</title>
<polygon fill="#ffffff" stroke="transparent" points="-36,36 -36,-1207.7982 1319.8717,-1207.7982 1319.8717,36 -36,36"/>
<!-- Comment -->
<g id="node1" class="node">
<title>Comment</title>
<polygon fill="#add8e6" stroke="transparent" points="319.3511,-132 319.3511,-154 427.3511,-154 427.3511,-132 319.3511,-132"/>
<polygon fill="none" stroke="#000000" points="319.3511,-132 319.3511,-154 427.3511,-154 427.3511,-132 319.3511,-132"/>
<text text-anchor="start" x="353.6286" y="-141" font-family="Times,serif" font-weight="bold" font-size="10.00" fill="#000000">Comment</text>
<polygon fill="none" stroke="#000000" points="319.3511,-110 319.3511,-132 427.3511,-132 427.3511,-110 319.3511,-110"/>
<text text-anchor="start" x="324.3276" y="-119" font-family="Times,serif" text-decoration="underline" font-size="10.00" fill="#000000">id_comment</text>
<text text-anchor="start" x="374.3216" y="-119" font-family="Times,serif" font-size="10.00" fill="#000000">: NUMBER</text>
<polygon fill="none" stroke="#000000" points="319.3511,-88 319.3511,-110 427.3511,-110 427.3511,-88 319.3511,-88"/>
<text text-anchor="start" x="324.3511" y="-97" font-family="Times,serif" font-style="italic" text-decoration="underline" font-size="10.00" fill="#000000">id_post</text>
<text text-anchor="start" x="353.7981" y="-97" font-family="Times,serif" font-size="10.00" fill="#000000">: NUMBER</text>
<polygon fill="none" stroke="#000000" points="319.3511,-66 319.3511,-88 427.3511,-88 427.3511,-66 319.3511,-66"/>
<text text-anchor="start" x="324.3511" y="-75" font-family="Times,serif" font-style="italic" text-decoration="underline" font-size="10.00" fill="#000000">id_person</text>
<text text-anchor="start" x="363.7871" y="-75" font-family="Times,serif" font-size="10.00" fill="#000000">: NUMBER</text>
<polygon fill="none" stroke="#000000" points="319.3511,-44 319.3511,-66 427.3511,-66 427.3511,-44 319.3511,-44"/>
<text text-anchor="start" x="324.0536" y="-52" font-family="Times,serif" font-size="10.00" fill="#000000">text_comment: STRING</text>
<polygon fill="none" stroke="#000000" points="319.3511,-22 319.3511,-44 427.3511,-44 427.3511,-22 319.3511,-22"/>
<text text-anchor="start" x="324.3511" y="-30" font-family="Times,serif" font-size="10.00" fill="#000000">created_at: DATE</text>
<polygon fill="none" stroke="#000000" points="319.3511,0 319.3511,-22 427.3511,-22 427.3511,0 319.3511,0"/>
<text text-anchor="start" x="324.3511" y="-8" font-family="Times,serif" font-size="10.00" fill="#000000">updated_at: DATE</text>
</g>
<!-- Person -->
<g id="node6" class="node">
<title>Person</title>
<polygon fill="#add8e6" stroke="transparent" points="328.1884,-968.1923 328.1884,-990.1923 476.1884,-990.1923 476.1884,-968.1923 328.1884,-968.1923"/>
<polygon fill="none" stroke="#000000" points="328.1884,-968.1923 328.1884,-990.1923 476.1884,-990.1923 476.1884,-968.1923 328.1884,-968.1923"/>
<text text-anchor="start" x="388.5804" y="-977.1923" font-family="Times,serif" font-weight="bold" font-size="10.00" fill="#000000">Person</text>
<polygon fill="none" stroke="#000000" points="328.1884,-946.1923 328.1884,-968.1923 476.1884,-968.1923 476.1884,-946.1923 328.1884,-946.1923"/>
<text text-anchor="start" x="333.1884" y="-955.1923" font-family="Times,serif" text-decoration="underline" font-size="10.00" fill="#000000">id_person</text>
<text text-anchor="start" x="372.6244" y="-955.1923" font-family="Times,serif" font-size="10.00" fill="#000000">: NUMBER</text>
<polygon fill="none" stroke="#000000" points="328.1884,-924.1923 328.1884,-946.1923 476.1884,-946.1923 476.1884,-924.1923 328.1884,-924.1923"/>
<text text-anchor="start" x="333.1884" y="-932.1923" font-family="Times,serif" font-size="10.00" fill="#000000">lastname_person: STRING</text>
<polygon fill="none" stroke="#000000" points="328.1884,-902.1923 328.1884,-924.1923 476.1884,-924.1923 476.1884,-902.1923 328.1884,-902.1923"/>
<text text-anchor="start" x="333.1884" y="-910.1923" font-family="Times,serif" font-size="10.00" fill="#000000">forename_person: STRING</text>
<polygon fill="none" stroke="#000000" points="328.1884,-880.1923 328.1884,-902.1923 476.1884,-902.1923 476.1884,-880.1923 328.1884,-880.1923"/>
<text text-anchor="start" x="333.1884" y="-888.1923" font-family="Times,serif" font-size="10.00" fill="#000000">gender_person: STRING</text>
<polygon fill="none" stroke="#000000" points="328.1884,-858.1923 328.1884,-880.1923 476.1884,-880.1923 476.1884,-858.1923 328.1884,-858.1923"/>
<text text-anchor="start" x="333.1884" y="-866.1923" font-family="Times,serif" font-size="10.00" fill="#000000">birthdate_person: DATEONLY</text>
<polygon fill="none" stroke="#000000" points="328.1884,-836.1923 328.1884,-858.1923 476.1884,-858.1923 476.1884,-836.1923 328.1884,-836.1923"/>
<text text-anchor="start" x="333.1884" y="-844.1923" font-family="Times,serif" font-size="10.00" fill="#000000">username_person: STRING</text>
<polygon fill="none" stroke="#000000" points="328.1884,-814.1923 328.1884,-836.1923 476.1884,-836.1923 476.1884,-814.1923 328.1884,-814.1923"/>
<text text-anchor="start" x="333.1884" y="-822.1923" font-family="Times,serif" font-size="10.00" fill="#000000">mail_person: STRING</text>
<polygon fill="none" stroke="#000000" points="328.1884,-792.1923 328.1884,-814.1923 476.1884,-814.1923 476.1884,-792.1923 328.1884,-792.1923"/>
<text text-anchor="start" x="333.1884" y="-800.1923" font-family="Times,serif" font-size="10.00" fill="#000000">password_person: STRING</text>
<polygon fill="none" stroke="#000000" points="328.1884,-770.1923 328.1884,-792.1923 476.1884,-792.1923 476.1884,-770.1923 328.1884,-770.1923"/>
<text text-anchor="start" x="333.1884" y="-778.1923" font-family="Times,serif" font-size="10.00" fill="#000000">phone_person: STRING</text>
<polygon fill="none" stroke="#000000" points="328.1884,-748.1923 328.1884,-770.1923 476.1884,-770.1923 476.1884,-748.1923 328.1884,-748.1923"/>
<text text-anchor="start" x="333.1884" y="-756.1923" font-family="Times,serif" font-size="10.00" fill="#000000">confidentiality_person: STRING</text>
<polygon fill="none" stroke="#000000" points="328.1884,-726.1923 328.1884,-748.1923 476.1884,-748.1923 476.1884,-726.1923 328.1884,-726.1923"/>
<text text-anchor="start" x="332.8974" y="-734.1923" font-family="Times,serif" font-size="10.00" fill="#000000">displayonline_person: BOOLEAN</text>
<polygon fill="none" stroke="#000000" points="328.1884,-704.1923 328.1884,-726.1923 476.1884,-726.1923 476.1884,-704.1923 328.1884,-704.1923"/>
<text text-anchor="start" x="333.1884" y="-712.1923" font-family="Times,serif" font-size="10.00" fill="#000000">bio_person: STRING</text>
<polygon fill="none" stroke="#000000" points="328.1884,-682.1923 328.1884,-704.1923 476.1884,-704.1923 476.1884,-682.1923 328.1884,-682.1923"/>
<text text-anchor="start" x="333.1884" y="-690.1923" font-family="Times,serif" font-size="10.00" fill="#000000">created_at: DATE</text>
<polygon fill="none" stroke="#000000" points="328.1884,-660.1923 328.1884,-682.1923 476.1884,-682.1923 476.1884,-660.1923 328.1884,-660.1923"/>
<text text-anchor="start" x="333.1884" y="-668.1923" font-family="Times,serif" font-size="10.00" fill="#000000">updated_at: DATE</text>
</g>
<!-- Comment&#45;&gt;Person -->
<g id="edge1" class="edge">
<title>Comment&#45;&gt;Person</title>
<path fill="none" stroke="#000000" stroke-width=".75" d="M376.5598,-160.2514C381.1944,-280.4978 389.8587,-505.2963 395.8205,-659.9762"/>
<polygon fill="#000000" stroke="#000000" stroke-width=".75" points="376.5597,-160.2472 379.0265,-154.1477 376.4441,-157.2495 376.3285,-154.2517 376.3285,-154.2517 376.3285,-154.2517 376.4441,-157.2495 373.6305,-154.3557 376.5597,-160.2472 376.5597,-160.2472"/>
</g>
<!-- Post -->
<g id="node7" class="node">
<title>Post</title>
<polygon fill="#add8e6" stroke="transparent" points="869.8717,-557.6332 869.8717,-579.6332 971.8717,-579.6332 971.8717,-557.6332 869.8717,-557.6332"/>
<polygon fill="none" stroke="#000000" points="869.8717,-557.6332 869.8717,-579.6332 971.8717,-579.6332 971.8717,-557.6332 869.8717,-557.6332"/>
<text text-anchor="start" x="912.2582" y="-566.6332" font-family="Times,serif" font-weight="bold" font-size="10.00" fill="#000000">Post</text>
<polygon fill="none" stroke="#000000" points="869.8717,-535.6332 869.8717,-557.6332 971.8717,-557.6332 971.8717,-535.6332 869.8717,-535.6332"/>
<text text-anchor="start" x="874.8717" y="-544.6332" font-family="Times,serif" text-decoration="underline" font-size="10.00" fill="#000000">id_post</text>
<text text-anchor="start" x="904.3187" y="-544.6332" font-family="Times,serif" font-size="10.00" fill="#000000">: NUMBER</text>
<polygon fill="none" stroke="#000000" points="869.8717,-513.6332 869.8717,-535.6332 971.8717,-535.6332 971.8717,-513.6332 869.8717,-513.6332"/>
<text text-anchor="start" x="874.8717" y="-522.6332" font-family="Times,serif" font-style="italic" text-decoration="underline" font-size="10.00" fill="#000000">id_person</text>
<text text-anchor="start" x="914.3077" y="-522.6332" font-family="Times,serif" font-size="10.00" fill="#000000">: NUMBER</text>
<polygon fill="none" stroke="#000000" points="869.8717,-491.6332 869.8717,-513.6332 971.8717,-513.6332 971.8717,-491.6332 869.8717,-491.6332"/>
<text text-anchor="start" x="874.6282" y="-499.6332" font-family="Times,serif" font-size="10.00" fill="#000000">caption_post: STRING</text>
<polygon fill="none" stroke="#000000" points="869.8717,-469.6332 869.8717,-491.6332 971.8717,-491.6332 971.8717,-469.6332 869.8717,-469.6332"/>
<text text-anchor="start" x="874.8717" y="-477.6332" font-family="Times,serif" font-size="10.00" fill="#000000">created_at: DATE</text>
<polygon fill="none" stroke="#000000" points="869.8717,-447.6332 869.8717,-469.6332 971.8717,-469.6332 971.8717,-447.6332 869.8717,-447.6332"/>
<text text-anchor="start" x="874.8717" y="-455.6332" font-family="Times,serif" font-size="10.00" fill="#000000">updated_at: DATE</text>
</g>
<!-- Comment&#45;&gt;Post -->
<g id="edge2" class="edge">
<title>Comment&#45;&gt;Post</title>
<path fill="none" stroke="#000000" stroke-width=".75" d="M432.3338,-124.0371C540.2884,-210.1281 767.8982,-391.6409 869.7351,-472.8531"/>
<polygon fill="#000000" stroke="#000000" stroke-width=".75" points="432.2903,-124.0025 429.2827,-118.1505 429.9448,-122.132 427.5993,-120.2615 427.5993,-120.2615 427.5993,-120.2615 429.9448,-122.132 425.9158,-122.3725 432.2903,-124.0025 432.2903,-124.0025"/>
</g>
<!-- Follow -->
<g id="node2" class="node">
<title>Follow</title>
<polygon fill="#add8e6" stroke="transparent" points="453.38,-1149.7982 453.38,-1171.7982 594.38,-1171.7982 594.38,-1149.7982 453.38,-1149.7982"/>
<polygon fill="none" stroke="#000000" points="453.38,-1149.7982 453.38,-1171.7982 594.38,-1171.7982 594.38,-1149.7982 453.38,-1149.7982"/>
<text text-anchor="start" x="509.712" y="-1158.7982" font-family="Times,serif" font-weight="bold" font-size="10.00" fill="#000000">Follow</text>
<polygon fill="none" stroke="#000000" points="453.38,-1127.7982 453.38,-1149.7982 594.38,-1149.7982 594.38,-1127.7982 453.38,-1127.7982"/>
<text text-anchor="start" x="458.193" y="-1136.7982" font-family="Times,serif" text-decoration="underline" font-size="10.00" fill="#000000">id_person_following</text>
<text text-anchor="start" x="541.514" y="-1136.7982" font-family="Times,serif" font-size="10.00" fill="#000000">: NUMBER</text>
<polygon fill="none" stroke="#000000" points="453.38,-1105.7982 453.38,-1127.7982 594.38,-1127.7982 594.38,-1105.7982 453.38,-1105.7982"/>
<text text-anchor="start" x="458.38" y="-1114.7982" font-family="Times,serif" text-decoration="underline" font-size="10.00" fill="#000000">id_person_followed</text>
<text text-anchor="start" x="538.361" y="-1114.7982" font-family="Times,serif" font-size="10.00" fill="#000000">: NUMBER</text>
<polygon fill="none" stroke="#000000" points="453.38,-1083.7982 453.38,-1105.7982 594.38,-1105.7982 594.38,-1083.7982 453.38,-1083.7982"/>
<text text-anchor="start" x="458.38" y="-1091.7982" font-family="Times,serif" font-size="10.00" fill="#000000">created_at: DATE</text>
<polygon fill="none" stroke="#000000" points="453.38,-1061.7982 453.38,-1083.7982 594.38,-1083.7982 594.38,-1061.7982 453.38,-1061.7982"/>
<text text-anchor="start" x="458.38" y="-1069.7982" font-family="Times,serif" font-size="10.00" fill="#000000">updated_at: DATE</text>
</g>
<!-- Follow&#45;&gt;Person -->
<g id="edge3" class="edge">
<title>Follow&#45;&gt;Person</title>
<path fill="none" stroke="#000000" stroke-width=".75" d="M498.0718,-1055.9026C489.9349,-1036.3242 480.4953,-1013.6108 470.7764,-990.2258"/>
<polygon fill="#000000" stroke="#000000" stroke-width=".75" points="498.1396,-1056.0659 497.949,-1062.6427 499.2909,-1058.8362 500.4423,-1061.6065 500.4423,-1061.6065 500.4423,-1061.6065 499.2909,-1058.8362 502.9355,-1060.5703 498.1396,-1056.0659 498.1396,-1056.0659"/>
</g>
<!-- Similarities -->
<g id="node3" class="node">
<title>Similarities</title>
<polygon fill="#add8e6" stroke="transparent" points="69.655,-1114.7116 69.655,-1136.7116 198.655,-1136.7116 198.655,-1114.7116 69.655,-1114.7116"/>
<polygon fill="none" stroke="#000000" points="69.655,-1114.7116 69.655,-1136.7116 198.655,-1136.7116 198.655,-1114.7116 69.655,-1114.7116"/>
<text text-anchor="start" x="111.101" y="-1123.7116" font-family="Times,serif" font-weight="bold" font-size="10.00" fill="#000000">Similarities</text>
<polygon fill="none" stroke="#000000" points="69.655,-1092.7116 69.655,-1114.7116 198.655,-1114.7116 198.655,-1092.7116 69.655,-1092.7116"/>
<text text-anchor="start" x="74.655" y="-1101.7116" font-family="Times,serif" text-decoration="underline" font-size="10.00" fill="#000000">id_person_1</text>
<text text-anchor="start" x="124.091" y="-1101.7116" font-family="Times,serif" font-size="10.00" fill="#000000">: NUMBER</text>
<polygon fill="none" stroke="#000000" points="69.655,-1070.7116 69.655,-1092.7116 198.655,-1092.7116 198.655,-1070.7116 69.655,-1070.7116"/>
<text text-anchor="start" x="74.655" y="-1079.7116" font-family="Times,serif" text-decoration="underline" font-size="10.00" fill="#000000">id_person_2</text>
<text text-anchor="start" x="124.091" y="-1079.7116" font-family="Times,serif" font-size="10.00" fill="#000000">: NUMBER</text>
<polygon fill="none" stroke="#000000" points="69.655,-1048.7116 69.655,-1070.7116 198.655,-1070.7116 198.655,-1048.7116 69.655,-1048.7116"/>
<text text-anchor="start" x="74.3005" y="-1056.7116" font-family="Times,serif" font-size="10.00" fill="#000000">index_similarities: NUMBER</text>
<polygon fill="none" stroke="#000000" points="69.655,-1026.7116 69.655,-1048.7116 198.655,-1048.7116 198.655,-1026.7116 69.655,-1026.7116"/>
<text text-anchor="start" x="74.655" y="-1034.7116" font-family="Times,serif" font-size="10.00" fill="#000000">created_at: DATE</text>
<polygon fill="none" stroke="#000000" points="69.655,-1004.7116 69.655,-1026.7116 198.655,-1026.7116 198.655,-1004.7116 69.655,-1004.7116"/>
<text text-anchor="start" x="74.655" y="-1012.7116" font-family="Times,serif" font-size="10.00" fill="#000000">updated_at: DATE</text>
</g>
<!-- Similarities&#45;&gt;Person -->
<g id="edge4" class="edge">
<title>Similarities&#45;&gt;Person</title>
<path fill="none" stroke="#000000" stroke-width=".75" d="M202.9489,-1007.3565C241.3177,-972.2759 289.014,-928.6674 328.1191,-892.9137"/>
<polygon fill="#000000" stroke="#000000" stroke-width=".75" points="202.7454,-1007.5425 196.4953,-1009.5985 200.5313,-1009.5669 198.3172,-1011.5912 198.3172,-1011.5912 198.3172,-1011.5912 200.5313,-1009.5669 200.1391,-1013.5839 202.7454,-1007.5425 202.7454,-1007.5425"/>
</g>
<!-- Likecomment -->
<g id="node4" class="node">
<title>Likecomment</title>
<polygon fill="#add8e6" stroke="transparent" points="15.5,-352.3131 15.5,-374.3131 123.5,-374.3131 123.5,-352.3131 15.5,-352.3131"/>
<polygon fill="none" stroke="#000000" points="15.5,-352.3131 15.5,-374.3131 123.5,-374.3131 123.5,-352.3131 15.5,-352.3131"/>
<text text-anchor="start" x="41.729" y="-361.3131" font-family="Times,serif" font-weight="bold" font-size="10.00" fill="#000000">Likecomment</text>
<polygon fill="none" stroke="#000000" points="15.5,-330.3131 15.5,-352.3131 123.5,-352.3131 123.5,-330.3131 15.5,-330.3131"/>
<text text-anchor="start" x="20.4765" y="-339.3131" font-family="Times,serif" text-decoration="underline" font-size="10.00" fill="#000000">id_comment</text>
<text text-anchor="start" x="70.4705" y="-339.3131" font-family="Times,serif" font-size="10.00" fill="#000000">: NUMBER</text>
<polygon fill="none" stroke="#000000" points="15.5,-308.3131 15.5,-330.3131 123.5,-330.3131 123.5,-308.3131 15.5,-308.3131"/>
<text text-anchor="start" x="20.5" y="-317.3131" font-family="Times,serif" text-decoration="underline" font-size="10.00" fill="#000000">id_person</text>
<text text-anchor="start" x="59.936" y="-317.3131" font-family="Times,serif" font-size="10.00" fill="#000000">: NUMBER</text>
<polygon fill="none" stroke="#000000" points="15.5,-286.3131 15.5,-308.3131 123.5,-308.3131 123.5,-286.3131 15.5,-286.3131"/>
<text text-anchor="start" x="20.5" y="-294.3131" font-family="Times,serif" font-size="10.00" fill="#000000">created_at: DATE</text>
<polygon fill="none" stroke="#000000" points="15.5,-264.3131 15.5,-286.3131 123.5,-286.3131 123.5,-264.3131 15.5,-264.3131"/>
<text text-anchor="start" x="20.5" y="-272.3131" font-family="Times,serif" font-size="10.00" fill="#000000">updated_at: DATE</text>
</g>
<!-- Likecomment&#45;&gt;Comment -->
<g id="edge6" class="edge">
<title>Likecomment&#45;&gt;Comment</title>
<path fill="none" stroke="#000000" stroke-width=".75" d="M128.7512,-272.0618C184.0019,-228.0009 265.7151,-162.8368 319.2434,-120.1494"/>
<polygon fill="#000000" stroke="#000000" stroke-width=".75" points="128.5135,-272.2514 122.139,-273.8814 126.168,-274.1219 123.8225,-275.9924 123.8225,-275.9924 123.8225,-275.9924 126.168,-274.1219 125.5059,-278.1034 128.5135,-272.2514 128.5135,-272.2514"/>
</g>
<!-- Likecomment&#45;&gt;Person -->
<g id="edge5" class="edge">
<title>Likecomment&#45;&gt;Person</title>
<path fill="none" stroke="#000000" stroke-width=".75" d="M109.2258,-379.7194C163.1618,-461.7334 260.5726,-609.8542 328.187,-712.6674"/>
<polygon fill="#000000" stroke="#000000" stroke-width=".75" points="109.0337,-379.4272 107.9927,-372.9305 107.3852,-376.9206 105.7368,-374.4141 105.7368,-374.4141 105.7368,-374.4141 107.3852,-376.9206 103.4809,-375.8977 109.0337,-379.4272 109.0337,-379.4272"/>
</g>
<!-- Likepost -->
<g id="node5" class="node">
<title>Likepost</title>
<polygon fill="#add8e6" stroke="transparent" points="704.2471,-896.7858 704.2471,-918.7858 801.2471,-918.7858 801.2471,-896.7858 704.2471,-896.7858"/>
<polygon fill="none" stroke="#000000" points="704.2471,-896.7858 704.2471,-918.7858 801.2471,-918.7858 801.2471,-896.7858 704.2471,-896.7858"/>
<text text-anchor="start" x="735.2496" y="-905.7858" font-family="Times,serif" font-weight="bold" font-size="10.00" fill="#000000">Likepost</text>
<polygon fill="none" stroke="#000000" points="704.2471,-874.7858 704.2471,-896.7858 801.2471,-896.7858 801.2471,-874.7858 704.2471,-874.7858"/>
<text text-anchor="start" x="709.2471" y="-883.7858" font-family="Times,serif" text-decoration="underline" font-size="10.00" fill="#000000">id_post</text>
<text text-anchor="start" x="738.6941" y="-883.7858" font-family="Times,serif" font-size="10.00" fill="#000000">: NUMBER</text>
<polygon fill="none" stroke="#000000" points="704.2471,-852.7858 704.2471,-874.7858 801.2471,-874.7858 801.2471,-852.7858 704.2471,-852.7858"/>
<text text-anchor="start" x="709.0026" y="-861.7858" font-family="Times,serif" text-decoration="underline" font-size="10.00" fill="#000000">id_person</text>
<text text-anchor="start" x="748.4386" y="-861.7858" font-family="Times,serif" font-size="10.00" fill="#000000">: NUMBER</text>
<polygon fill="none" stroke="#000000" points="704.2471,-830.7858 704.2471,-852.7858 801.2471,-852.7858 801.2471,-830.7858 704.2471,-830.7858"/>
<text text-anchor="start" x="709.2471" y="-838.7858" font-family="Times,serif" font-size="10.00" fill="#000000">created_at: DATE</text>
<polygon fill="none" stroke="#000000" points="704.2471,-808.7858 704.2471,-830.7858 801.2471,-830.7858 801.2471,-808.7858 704.2471,-808.7858"/>
<text text-anchor="start" x="709.2471" y="-816.7858" font-family="Times,serif" font-size="10.00" fill="#000000">updated_at: DATE</text>
</g>
<!-- Likepost&#45;&gt;Person -->
<g id="edge7" class="edge">
<title>Likepost&#45;&gt;Person</title>
<path fill="none" stroke="#000000" stroke-width=".75" d="M697.5739,-857.7582C638.0869,-851.1998 542.6372,-840.6766 476.4068,-833.3748"/>
<polygon fill="#000000" stroke="#000000" stroke-width=".75" points="697.6091,-857.7619 703.277,-861.1033 700.591,-858.0907 703.573,-858.4195 703.573,-858.4195 703.573,-858.4195 700.591,-858.0907 703.8689,-855.7358 697.6091,-857.7619 697.6091,-857.7619"/>
</g>
<!-- Likepost&#45;&gt;Post -->
<g id="edge8" class="edge">
<title>Likepost&#45;&gt;Post</title>
<path fill="none" stroke="#000000" stroke-width=".75" d="M781.4522,-803.1409C811.4727,-740.8026 858.0801,-644.0213 889.0301,-579.753"/>
<polygon fill="#000000" stroke="#000000" stroke-width=".75" points="781.3836,-803.2834 776.3476,-807.5177 780.0819,-805.9863 778.7802,-808.6893 778.7802,-808.6893 778.7802,-808.6893 780.0819,-805.9863 781.2128,-809.8608 781.3836,-803.2834 781.3836,-803.2834"/>
</g>
<!-- Post&#45;&gt;Person -->
<g id="edge9" class="edge">
<title>Post&#45;&gt;Person</title>
<path fill="none" stroke="#000000" stroke-width=".75" d="M864.486,-547.5026C770.4075,-604.013 581.4283,-717.5278 476.5672,-780.515"/>
<polygon fill="#000000" stroke="#000000" stroke-width=".75" points="864.5754,-547.4489 871.1092,-546.6739 867.1471,-545.9041 869.7189,-544.3593 869.7189,-544.3593 869.7189,-544.3593 867.1471,-545.9041 868.3286,-542.0448 864.5754,-547.4489 864.5754,-547.4489"/>
</g>
<!-- Hashtag -->
<g id="node8" class="node">
<title>Hashtag</title>
<polygon fill="#add8e6" stroke="transparent" points="1175.8717,-546.6332 1175.8717,-568.6332 1283.8717,-568.6332 1283.8717,-546.6332 1175.8717,-546.6332"/>
<polygon fill="none" stroke="#000000" points="1175.8717,-546.6332 1175.8717,-568.6332 1283.8717,-568.6332 1283.8717,-546.6332 1175.8717,-546.6332"/>
<text text-anchor="start" x="1213.4892" y="-555.6332" font-family="Times,serif" font-weight="bold" font-size="10.00" fill="#000000">Hashtag</text>
<polygon fill="none" stroke="#000000" points="1175.8717,-524.6332 1175.8717,-546.6332 1283.8717,-546.6332 1283.8717,-524.6332 1175.8717,-524.6332"/>
<text text-anchor="start" x="1180.8717" y="-533.6332" font-family="Times,serif" text-decoration="underline" font-size="10.00" fill="#000000">id_hashtag</text>
<text text-anchor="start" x="1224.1967" y="-533.6332" font-family="Times,serif" font-size="10.00" fill="#000000">: NUMBER</text>
<polygon fill="none" stroke="#000000" points="1175.8717,-502.6332 1175.8717,-524.6332 1283.8717,-524.6332 1283.8717,-502.6332 1175.8717,-502.6332"/>
<text text-anchor="start" x="1180.5787" y="-510.6332" font-family="Times,serif" font-size="10.00" fill="#000000">name_hashtag: STRING</text>
<polygon fill="none" stroke="#000000" points="1175.8717,-480.6332 1175.8717,-502.6332 1283.8717,-502.6332 1283.8717,-480.6332 1175.8717,-480.6332"/>
<text text-anchor="start" x="1180.8717" y="-488.6332" font-family="Times,serif" font-size="10.00" fill="#000000">created_at: DATE</text>
<polygon fill="none" stroke="#000000" points="1175.8717,-458.6332 1175.8717,-480.6332 1283.8717,-480.6332 1283.8717,-458.6332 1175.8717,-458.6332"/>
<text text-anchor="start" x="1180.8717" y="-466.6332" font-family="Times,serif" font-size="10.00" fill="#000000">updated_at: DATE</text>
</g>
<!-- Posthashtag -->
<g id="node9" class="node">
<title>Posthashtag</title>
<polygon fill="#add8e6" stroke="transparent" points="997.8717,-546.6332 997.8717,-568.6332 1098.8717,-568.6332 1098.8717,-546.6332 997.8717,-546.6332"/>
<polygon fill="none" stroke="#000000" points="997.8717,-546.6332 997.8717,-568.6332 1098.8717,-568.6332 1098.8717,-546.6332 997.8717,-546.6332"/>
<text text-anchor="start" x="1024.4852" y="-555.6332" font-family="Times,serif" font-weight="bold" font-size="10.00" fill="#000000">Posthashtag</text>
<polygon fill="none" stroke="#000000" points="997.8717,-524.6332 997.8717,-546.6332 1098.8717,-546.6332 1098.8717,-524.6332 997.8717,-524.6332"/>
<text text-anchor="start" x="1002.8717" y="-533.6332" font-family="Times,serif" text-decoration="underline" font-size="10.00" fill="#000000">id_post</text>
<text text-anchor="start" x="1032.3187" y="-533.6332" font-family="Times,serif" font-size="10.00" fill="#000000">: NUMBER</text>
<polygon fill="none" stroke="#000000" points="997.8717,-502.6332 997.8717,-524.6332 1098.8717,-524.6332 1098.8717,-502.6332 997.8717,-502.6332"/>
<text text-anchor="start" x="1002.6827" y="-511.6332" font-family="Times,serif" text-decoration="underline" font-size="10.00" fill="#000000">id_hashtag</text>
<text text-anchor="start" x="1046.0077" y="-511.6332" font-family="Times,serif" font-size="10.00" fill="#000000">: NUMBER</text>
<polygon fill="none" stroke="#000000" points="997.8717,-480.6332 997.8717,-502.6332 1098.8717,-502.6332 1098.8717,-480.6332 997.8717,-480.6332"/>
<text text-anchor="start" x="1002.8717" y="-488.6332" font-family="Times,serif" font-size="10.00" fill="#000000">created_at: DATE</text>
<polygon fill="none" stroke="#000000" points="997.8717,-458.6332 997.8717,-480.6332 1098.8717,-480.6332 1098.8717,-458.6332 997.8717,-458.6332"/>
<text text-anchor="start" x="1002.8717" y="-466.6332" font-family="Times,serif" font-size="10.00" fill="#000000">updated_at: DATE</text>
</g>
<!-- Posthashtag&#45;&gt;Post -->
<g id="edge10" class="edge">
<title>Posthashtag&#45;&gt;Post</title>
<path fill="none" stroke="#000000" stroke-width=".75" d="M991.0392,-513.6332C984.7263,-513.6332 978.3245,-513.6332 972.0871,-513.6332"/>
<polygon fill="#000000" stroke="#000000" stroke-width=".75" points="991.3131,-513.6333 997.3131,-516.3332 994.3131,-513.6332 997.3131,-513.6332 997.3131,-513.6332 997.3131,-513.6332 994.3131,-513.6332 997.313,-510.9332 991.3131,-513.6333 991.3131,-513.6333"/>
</g>
<!-- Posthashtag&#45;&gt;Hashtag -->
<g id="edge11" class="edge">
<title>Posthashtag&#45;&gt;Hashtag</title>
<path fill="none" stroke="#000000" stroke-width=".75" d="M1104.8495,-513.6332C1127.4447,-513.6332 1153.309,-513.6332 1175.6277,-513.6332"/>
<polygon fill="#000000" stroke="#000000" stroke-width=".75" points="1104.5689,-513.6333 1098.5689,-510.9332 1101.5689,-513.6332 1098.5689,-513.6332 1098.5689,-513.6332 1098.5689,-513.6332 1101.5689,-513.6332 1098.5688,-516.3332 1104.5689,-513.6333 1104.5689,-513.6333"/>
</g>
<!-- Tag -->
<g id="node10" class="node">
<title>Tag</title>
<polygon fill="#add8e6" stroke="transparent" points="704.2471,-196.4806 704.2471,-218.4806 801.2471,-218.4806 801.2471,-196.4806 704.2471,-196.4806"/>
<polygon fill="none" stroke="#000000" points="704.2471,-196.4806 704.2471,-218.4806 801.2471,-218.4806 801.2471,-196.4806 704.2471,-196.4806"/>
<text text-anchor="start" x="744.9731" y="-205.4806" font-family="Times,serif" font-weight="bold" font-size="10.00" fill="#000000">Tag</text>
<polygon fill="none" stroke="#000000" points="704.2471,-174.4806 704.2471,-196.4806 801.2471,-196.4806 801.2471,-174.4806 704.2471,-174.4806"/>
<text text-anchor="start" x="709.2471" y="-183.4806" font-family="Times,serif" text-decoration="underline" font-size="10.00" fill="#000000">id_post</text>
<text text-anchor="start" x="738.6941" y="-183.4806" font-family="Times,serif" font-size="10.00" fill="#000000">: NUMBER</text>
<polygon fill="none" stroke="#000000" points="704.2471,-152.4806 704.2471,-174.4806 801.2471,-174.4806 801.2471,-152.4806 704.2471,-152.4806"/>
<text text-anchor="start" x="709.0026" y="-161.4806" font-family="Times,serif" text-decoration="underline" font-size="10.00" fill="#000000">id_person</text>
<text text-anchor="start" x="748.4386" y="-161.4806" font-family="Times,serif" font-size="10.00" fill="#000000">: NUMBER</text>
<polygon fill="none" stroke="#000000" points="704.2471,-130.4806 704.2471,-152.4806 801.2471,-152.4806 801.2471,-130.4806 704.2471,-130.4806"/>
<text text-anchor="start" x="709.2471" y="-138.4806" font-family="Times,serif" font-size="10.00" fill="#000000">created_at: DATE</text>
<polygon fill="none" stroke="#000000" points="704.2471,-108.4806 704.2471,-130.4806 801.2471,-130.4806 801.2471,-108.4806 704.2471,-108.4806"/>
<text text-anchor="start" x="709.2471" y="-116.4806" font-family="Times,serif" font-size="10.00" fill="#000000">updated_at: DATE</text>
</g>
<!-- Tag&#45;&gt;Person -->
<g id="edge12" class="edge">
<title>Tag&#45;&gt;Person</title>
<path fill="none" stroke="#000000" stroke-width=".75" d="M720.1104,-224.2282C665.1596,-328.101 551.7846,-542.4124 476.3528,-685.0002"/>
<polygon fill="#000000" stroke="#000000" stroke-width=".75" points="720.1977,-224.0632 725.39,-220.0222 721.6005,-221.4114 723.0034,-218.7596 723.0034,-218.7596 723.0034,-218.7596 721.6005,-221.4114 720.6168,-217.497 720.1977,-224.0632 720.1977,-224.0632"/>
</g>
<!-- Tag&#45;&gt;Post -->
<g id="edge13" class="edge">
<title>Tag&#45;&gt;Post</title>
<path fill="none" stroke="#000000" stroke-width=".75" d="M781.4522,-224.1254C811.4727,-286.4637 858.0801,-383.2451 889.0301,-447.5134"/>
<polygon fill="#000000" stroke="#000000" stroke-width=".75" points="781.3836,-223.9829 781.2128,-217.4056 780.0819,-221.28 778.7802,-218.5771 778.7802,-218.5771 778.7802,-218.5771 780.0819,-221.28 776.3476,-219.7486 781.3836,-223.9829 781.3836,-223.9829"/>
</g>
<!-- Notification -->
<g id="node11" class="node">
<title>Notification</title>
<polygon fill="#add8e6" stroke="transparent" points=".5,-795.9532 .5,-817.9532 139.5,-817.9532 139.5,-795.9532 .5,-795.9532"/>
<polygon fill="none" stroke="#000000" points=".5,-795.9532 .5,-817.9532 139.5,-817.9532 139.5,-795.9532 .5,-795.9532"/>
<text text-anchor="start" x="45.8395" y="-804.9532" font-family="Times,serif" font-weight="bold" font-size="10.00" fill="#000000">Notification</text>
<polygon fill="none" stroke="#000000" points=".5,-773.9532 .5,-795.9532 139.5,-795.9532 139.5,-773.9532 .5,-773.9532"/>
<text text-anchor="start" x="5.5" y="-782.9532" font-family="Times,serif" text-decoration="underline" font-size="10.00" fill="#000000">id_notification</text>
<text text-anchor="start" x="64.381" y="-782.9532" font-family="Times,serif" font-size="10.00" fill="#000000">: NUMBER</text>
<polygon fill="none" stroke="#000000" points=".5,-751.9532 .5,-773.9532 139.5,-773.9532 139.5,-751.9532 .5,-751.9532"/>
<text text-anchor="start" x="5.1535" y="-760.9532" font-family="Times,serif" font-style="italic" text-decoration="underline" font-size="10.00" fill="#000000">id_person_receiving</text>
<text text-anchor="start" x="86.7935" y="-760.9532" font-family="Times,serif" font-size="10.00" fill="#000000">: NUMBER</text>
<polygon fill="none" stroke="#000000" points=".5,-729.9532 .5,-751.9532 139.5,-751.9532 139.5,-729.9532 .5,-729.9532"/>
<text text-anchor="start" x="5.5" y="-738.9532" font-family="Times,serif" font-style="italic" text-decoration="underline" font-size="10.00" fill="#000000">id_person_sending</text>
<text text-anchor="start" x="81.043" y="-738.9532" font-family="Times,serif" font-size="10.00" fill="#000000">: NUMBER</text>
<polygon fill="none" stroke="#000000" points=".5,-707.9532 .5,-729.9532 139.5,-729.9532 139.5,-707.9532 .5,-707.9532"/>
<text text-anchor="start" x="5.5" y="-715.9532" font-family="Times,serif" font-size="10.00" fill="#000000">type_notification: STRING</text>
<polygon fill="none" stroke="#000000" points=".5,-685.9532 .5,-707.9532 139.5,-707.9532 139.5,-685.9532 .5,-685.9532"/>
<text text-anchor="start" x="5.5" y="-693.9532" font-family="Times,serif" font-size="10.00" fill="#000000">isread_notification: BOOLEAN</text>
<polygon fill="none" stroke="#000000" points=".5,-663.9532 .5,-685.9532 139.5,-685.9532 139.5,-663.9532 .5,-663.9532"/>
<text text-anchor="start" x="5.5" y="-672.9532" font-family="Times,serif" font-style="italic" text-decoration="underline" font-size="10.00" fill="#000000">id_post</text>
<text text-anchor="start" x="34.947" y="-672.9532" font-family="Times,serif" font-size="10.00" fill="#000000">: NUMBER</text>
<polygon fill="none" stroke="#000000" points=".5,-641.9532 .5,-663.9532 139.5,-663.9532 139.5,-641.9532 .5,-641.9532"/>
<text text-anchor="start" x="5.5" y="-650.9532" font-family="Times,serif" font-style="italic" text-decoration="underline" font-size="10.00" fill="#000000">id_comment</text>
<text text-anchor="start" x="55.494" y="-650.9532" font-family="Times,serif" font-size="10.00" fill="#000000">: NUMBER</text>
<polygon fill="none" stroke="#000000" points=".5,-619.9532 .5,-641.9532 139.5,-641.9532 139.5,-619.9532 .5,-619.9532"/>
<text text-anchor="start" x="5.5" y="-627.9532" font-family="Times,serif" font-size="10.00" fill="#000000">created_at: DATE</text>
<polygon fill="none" stroke="#000000" points=".5,-597.9532 .5,-619.9532 139.5,-619.9532 139.5,-597.9532 .5,-597.9532"/>
<text text-anchor="start" x="5.5" y="-605.9532" font-family="Times,serif" font-size="10.00" fill="#000000">updated_at: DATE</text>
</g>
<!-- Notification&#45;&gt;Comment -->
<g id="edge16" class="edge">
<title>Notification&#45;&gt;Comment</title>
<path fill="none" stroke="#000000" stroke-width=".75" d="M125.3121,-592.0581C186.6449,-464.6992 283.4384,-263.7055 336.143,-154.2633"/>
<polygon fill="#000000" stroke="#000000" stroke-width=".75" points="125.2039,-592.2829 120.1679,-596.5172 123.9022,-594.9858 122.6006,-597.6888 122.6006,-597.6888 122.6006,-597.6888 123.9022,-594.9858 125.0332,-598.8603 125.2039,-592.2829 125.2039,-592.2829"/>
</g>
<!-- Notification&#45;&gt;Person -->
<g id="edge14" class="edge">
<title>Notification&#45;&gt;Person</title>
<path fill="none" stroke="#000000" stroke-width=".75" d="M145.149,-734.6119C199.888,-753.9018 273.4996,-779.8425 327.9181,-799.0195"/>
<polygon fill="#000000" stroke="#000000" stroke-width=".75" points="144.9013,-734.5246 140.1398,-729.9839 142.0718,-733.5275 139.2424,-732.5304 139.2424,-732.5304 139.2424,-732.5304 142.0718,-733.5275 138.345,-735.0769 144.9013,-734.5246 144.9013,-734.5246"/>
</g>
<!-- Notification&#45;&gt;Post -->
<g id="edge15" class="edge">
<title>Notification&#45;&gt;Post</title>
<path fill="none" stroke="#000000" stroke-width=".75" d="M145.1311,-690.6909C315.5369,-651.7969 725.8399,-558.1479 869.8608,-525.2761"/>
<polygon fill="#000000" stroke="#000000" stroke-width=".75" points="145.0209,-690.716 138.5705,-689.4189 142.0961,-691.3836 139.1713,-692.0512 139.1713,-692.0512 139.1713,-692.0512 142.0961,-691.3836 139.7722,-694.6835 145.0209,-690.716 145.0209,-690.716"/>
</g>
</g>
</svg>
